:FULLY-SPECIFIED
:FORCE-ALL-JOINTS-BE-3DOF
:DEGREES
2446
root 1.19748 14.5221 -23.5436 0.843972 69.7534 -3.17326
lfemur -49.5842 11.4532 -8.74563
ltibia 91.8738 -0 0
lfoot -11.3505 24.3654 -0.107991
ltoes -5.11473 0 0
rfemur -40.6859 -1.84606 17.5325
rtibia 68.8164 -0 0
rfoot -14.8125 -19.6211 1.97027
rtoes -16.5618 0 0
lowerback 17.7887 2.41222 1.76605
upperback -1.24307 3.87354 2.05105
thorax -11.2275 1.80147 0.186106
lowerneck -4.70827 -2.5001 -3.10479
upperneck 5.8692 -3.09284 0.411488
head 3.6614 -1.64129 0.671193
lclavicle 2.24211e-14 -1.67253e-14 4.59045e-32
lhumerus -8.35526 -15.7328 80.8205
lradius 110.533 -0 0
lwrist 49.1411 0 0
lhand -27.0032 54.7852 -1.82623
lfingers 7.12502 -0 0
lthumb -0.463842 83.3821 -1.98778
rclavicle 2.24211e-14 -1.67253e-14 4.59045e-32
rhumerus -19.1721 36.0708 -80.2148
rradius 111.094 -0 0
rwrist -29.4265 0 0
rhand -9.40471 -25.5237 2.26175
rfingers 7.12502 -0 0
rthumb 16.5166 -53.9563 2.31542
2447
root 1.23585 14.5121 -23.5404 0.785807 69.8436 -3.22661
lfemur -49.4678 11.3435 -8.79429
ltibia 91.8955 -0 0
lfoot -11.5171 24.4205 -0.11136
ltoes -5.46083 0 0
rfemur -40.8637 -1.99569 17.3599
rtibia 68.6679 -0 0
rfoot -14.5601 -19.3481 2.00507
rtoes -16.3043 0 0
lowerback 17.7822 2.37539 1.71659
upperback -1.23465 3.81586 2.06695
thorax -11.2147 1.77816 0.246953
lowerneck -4.60721 -2.66754 -3.23588
upperneck 5.82753 -3.3222 0.565529
head 3.65218 -1.75377 0.734696
lclavicle 2.22975e-14 -1.67139e-14 5.81182e-32
lhumerus -8.75105 -16.0868 81.0266
lradius 110.488 -0 0
lwrist 49.6183 0 0
lhand -26.6052 54.6769 -1.85453
lfingers 7.12502 -0 0
lthumb -0.0802026 83.2534 -2.0177
rclavicle 2.22975e-14 -1.67139e-14 5.81182e-32
rhumerus -18.7112 35.4988 -79.7699
rradius 110.724 -0 0
rwrist -28.9102 0 0
rhand -9.73477 -25.7635 2.29848
rfingers 7.12502 -0 0
rthumb 16.1983 -54.2107 2.35314
2448
root 1.27435 14.502 -23.5371 0.727154 69.9277 -3.27988
lfemur -49.3483 11.2331 -8.84337
ltibia 91.9152 -0 0
lfoot -11.6849 24.4762 -0.114618
ltoes -5.81058 0 0
rfemur -41.0432 -2.14747 17.1866
rtibia 68.519 -0 0
rfoot -14.3061 -19.0721 2.0388
rtoes -16.0445 0 0
lowerback 17.7755 2.33841 1.66631
upperback -1.22624 3.75778 2.0828
thorax -11.2018 1.7547 0.308336
lowerneck -4.50502 -2.83592 -3.3683
upperneck 5.78495 -3.55306 0.720959
head 3.64276 -1.86704 0.798698
lclavicle 2.21706e-14 -1.67019e-14 7.05265e-32
lhumerus -9.1528 -16.4422 81.2375
lradius 110.442 -0 0
lwrist 50.0984 0 0
lhand -26.2048 54.5677 -1.88217
lfingers 7.12502 -0 0
lthumb 0.305813 83.1236 -2.04684
rclavicle 2.21706e-14 -1.67019e-14 7.05265e-32
rhumerus -18.2529 34.9206 -79.3294
rradius 110.348 -0 0
rwrist -28.3888 0 0
rhand -10.0671 -26.0054 2.33396
rfingers 7.12502 -0 0
rthumb 15.8778 -54.4674 2.38959
2449
root 1.31297 14.4919 -23.5336 0.668057 70.006 -3.33304
lfemur -49.2259 11.122 -8.89289
ltibia 91.9327 -0 0
lfoot -11.854 24.5325 -0.117758
ltoes -6.16386 0 0
rfemur -41.2243 -2.30138 17.0125
rtibia 68.3696 -0 0
rfoot -14.0504 -18.7933 2.07143
rtoes -15.7825 0 0
lowerback 17.7685 2.30127 1.61526
upperback -1.21782 3.69932 2.09861
thorax -11.1888 1.73108 0.370233
lowerneck -4.40172 -3.00519 -3.50201
upperneck 5.74148 -3.78536 0.877739
head 3.63312 -1.98105 0.86318
lclavicle 2.20407e-14 -1.66891e-14 8.31159e-32
lhumerus -9.56039 -16.799 81.4531
lradius 110.396 -0 0
lwrist 50.5811 0 0
lhand -25.802 54.4575 -1.90912
lfingers 7.12502 -0 0
lthumb 0.694099 82.9928 -2.0752
rclavicle 2.20407e-14 -1.66891e-14 8.31159e-32
rhumerus -17.7973 34.3362 -78.8933
rradius 109.967 -0 0
rwrist -27.8626 0 0
rhand -10.4017 -26.2494 2.36816
rfingers 7.12502 -0 0
rthumb 15.5551 -54.7263 2.42471
2450
root 1.35171 14.4817 -23.5299 0.60856 70.0787 -3.38603
lfemur -49.1006 11.0102 -8.94283
ltibia 91.9482 -0 0
lfoot -12.0243 24.5893 -0.120775
ltoes -6.52056 0 0
rfemur -41.4069 -2.45738 16.8378
rtibia 68.2198 -0 0
rfoot -13.7931 -18.5117 2.10293
rtoes -15.5184 0 0
lowerback 17.7613 2.26399 1.56344
upperback -1.20941 3.6405 2.11438
thorax -11.1756 1.70733 0.432624
lowerneck -4.29734 -3.17528 -3.63698
upperneck 5.69711 -4.01901 1.03583
head 3.62327 -2.09578 0.928122
lclavicle 2.19077e-14 -1.66757e-14 9.58728e-32
lhumerus -9.9737 -17.1569 81.6735
lradius 110.35 -0 0
lwrist 51.0662 0 0
lhand -25.397 54.3464 -1.93537
lfingers 7.12502 -0 0
lthumb 1.08454 82.861 -2.10273
rclavicle 2.19077e-14 -1.66757e-14 9.58728e-32
rhumerus -17.3445 33.7459 -78.4618
rradius 109.58 -0 0
rwrist -27.3316 0 0
rhand -10.7384 -26.4955 2.40102
rfingers 7.12502 -0 0
rthumb 15.2303 -54.9874 2.45848
2451
root 1.39055 14.4714 -23.526 0.548731 70.1461 -3.43882
lfemur -48.9725 10.8978 -8.99319
ltibia 91.9618 -0 0
lfoot -12.1958 24.6467 -0.123662
ltoes -6.88057 0 0
rfemur -41.591 -2.61543 16.6625
rtibia 68.0696 -0 0
rfoot -13.5343 -18.2275 2.13324
rtoes -15.2522 0 0
lowerback 17.7539 2.22658 1.51088
upperback -1.201 3.58133 2.1301
thorax -11.1624 1.68344 0.495489
lowerneck -4.19189 -3.34612 -3.77318
upperneck 5.65183 -4.25391 1.19518
head 3.6132 -2.21117 0.993505
lclavicle 2.17719e-14 -1.66617e-14 1.08784e-31
lhumerus -10.3926 -17.5159 81.8987
lradius 110.302 -0 0
lwrist 51.5536 0 0
lhand -24.9899 54.2343 -1.96091
lfingers 7.12502 -0 0
lthumb 1.47704 82.7282 -2.12943
rclavicle 2.17719e-14 -1.66617e-14 1.08784e-31
rhumerus -16.8948 33.1499 -78.0351
rradius 109.189 -0 0
rwrist -26.7961 0 0
rhand -11.0771 -26.7434 2.43251
rfingers 7.12502 -0 0
rthumb 14.9036 -55.2505 2.49085
2452
root 1.42949 14.461 -23.5219 0.488549 70.2085 -3.49141
lfemur -48.8417 10.7849 -9.04399
ltibia 91.9733 -0 0
lfoot -12.3683 24.7046 -0.126414
ltoes -7.24376 0 0
rfemur -41.7765 -2.7755 16.4867
rtibia 67.919 -0 0
rfoot -13.2742 -17.9407 2.16234
rtoes -14.9841 0 0
lowerback 17.7463 2.18904 1.45762
upperback -1.19259 3.52183 2.14577
thorax -11.149 1.65943 0.558807
lowerneck -4.0854 -3.51765 -3.91056
upperneck 5.60565 -4.48998 1.35577
head 3.60291 -2.32719 1.05931
lclavicle 2.16332e-14 -1.66469e-14 1.21834e-31
lhumerus -10.8171 -17.8759 82.1287
lradius 110.255 -0 0
lwrist 52.043 0 0
lhand -24.5808 54.1213 -1.98569
lfingers 7.12502 -0 0
lthumb 1.87149 82.5945 -2.15527
rclavicle 2.16332e-14 -1.66469e-14 1.21834e-31
rhumerus -16.4482 32.5484 -77.6133
rradius 108.793 -0 0
rwrist -26.2562 0 0
rhand -11.4176 -26.9933 2.4626
rfingers 7.12502 -0 0
rthumb 14.5751 -55.5155 2.52178
2453
root 1.4685 14.4506 -23.5176 0.428084 70.266 -3.54374
lfemur -48.7082 10.6714 -9.09521
ltibia 91.983 -0 0
lfoot -12.5419 24.7629 -0.129026
ltoes -7.61004 0 0
rfemur -41.9632 -2.93754 16.3104
rtibia 67.7681 -0 0
rfoot -13.0128 -17.6515 2.19019
rtoes -14.7141 0 0
lowerback 17.7385 2.15138 1.40366
upperback -1.18419 3.46202 2.16139
thorax -11.1355 1.63529 0.622559
lowerneck -3.9779 -3.68979 -4.04909
upperneck 5.55855 -4.72713 1.51754
head 3.59241 -2.44379 1.12552
lclavicle 2.14918e-14 -1.66314e-14 1.35011e-31
lhumerus -11.2469 -18.2366 82.3635
lradius 110.207 -0 0
lwrist 52.5343 0 0
lhand -24.1698 54.0074 -2.00972
lfingers 7.12502 -0 0
lthumb 2.26777 82.4598 -2.18022
rclavicle 2.14918e-14 -1.66314e-14 1.35011e-31
rhumerus -16.0049 31.9416 -77.1965
rradius 108.392 -0 0
rwrist -25.7122 0 0
rhand -11.7599 -27.2448 2.49125
rfingers 7.12502 -0 0
rthumb 14.2448 -55.7824 2.55123
2454
root 1.50759 14.4401 -23.5132 0.36737 70.3189 -3.59579
lfemur -48.5722 10.5574 -9.14687
ltibia 91.9908 -0 0
lfoot -12.7166 24.8217 -0.131493
ltoes -7.97927 0 0
rfemur -42.1511 -3.10152 16.1339
rtibia 67.617 -0 0
rfoot -12.7501 -17.3599 2.21675
rtoes -14.4423 0 0
lowerback 17.7305 2.11362 1.34903
upperback -1.1758 3.40191 2.17696
thorax -11.122 1.61104 0.686724
lowerneck -3.8694 -3.86249 -4.18874
upperneck 5.51054 -4.96528 1.68046
head 3.58169 -2.56093 1.19211
lclavicle 2.13478e-14 -1.66152e-14 1.48299e-31
lhumerus -11.682 -18.598 82.6031
lradius 110.158 -0 0
lwrist 53.0273 0 0
lhand -23.757 53.8925 -2.03296
lfingers 7.12502 -0 0
lthumb 2.66577 82.3241 -2.20428
rclavicle 2.13478e-14 -1.66152e-14 1.48299e-31
rhumerus -15.5649 31.3297 -76.7848
rradius 107.987 -0 0
rwrist -25.1642 0 0
rhand -12.1039 -27.498 2.51842
rfingers 7.12502 -0 0
rthumb 13.913 -56.0511 2.57917
